<?xml version="1.0" encoding="utf-8"?>
<!-- Generator: Adobe Illustrator 19.0.0, SVG Export Plug-In . SVG Version: 6.00 Build 0)  -->
<svg version="1.1" id="Layer_1" xmlns="http://www.w3.org/2000/svg" xmlns:xlink="http://www.w3.org/1999/xlink" x="0px" y="0px"
	 viewBox="0 0 500 500" style="enable-background:new 0 0 500 500;" xml:space="preserve">
<style type="text/css">
	.st0{fill-rule:evenodd;clip-rule:evenodd;fill:#070B07;}
</style>
<g id="XMLID_1_">
	<path id="XMLID_5_" class="st0" d="M302.3,149.4c16.9,8.7,28.4,19.3,39.8,34.1c7.5,9.7,14.9,25.2,18,37.4c1,3.9,3,11.7,3,15.5
		h-60.7V149.4z M269,236.4h-19.7V136.1h-33.6v112.8c-1.3-1.9-2.5-4.9-3.6-7c-1.2-2.4-2.4-4.8-3.6-7.2c-7.2-14.3-14.2-29-21.4-43.4
		l-21.4-43.3c-2.4-4.7-4.6-9.8-7.1-14.4c-5,3.1-15,13.6-19.3,18.2c-5.8,6.4-11.5,14.4-15.9,21.8c-10.5,17.4-16.4,35.8-19.3,55.9
		c-3.2,22.3-0.9,45,6.1,66.4c3,9,7,17.6,11.6,25.9c2.2,3.9,4.7,7.9,7.3,11.5c2.6,3.7,5.6,7.2,8,10.8h47c-0.8-1.2-5.9-4.8-7.4-6.1
		c-31.8-27-45.2-66-39.2-107.3c1-7.2,3.2-14.6,5.7-21.3c1-2.5,7.5-17.5,8.7-18.5c0.8,0.6,10.7,21.8,12.2,24.7
		c4.2,8.2,8,16.7,12.2,25c8.3,16.4,15.9,33.4,24.3,49.8c8.4,16.4,16.1,33.3,24.3,49.8c4.1,8.2,8,16.6,12.1,24.8
		c2.5,5.1,10.3,21.7,12.3,24.9V267.2H269c0,7.7-0.4,75.4,0.1,76.6c1,0.4,29.5,0.1,33.1,0.1v-76.8h60.3c0,5.3-4.3,19.2-6.3,24.6
		c-4.7,12.5-14.4,28.4-24,37.8c-4.2,4.1-7.3,7.3-12.1,10.9c-0.6,0.5-4.2,3-4.1,3.4c1,0.5,42.9,0.2,47.9,0.2
		c15.7-17.8,27.6-45.5,31.3-68.9c4.6-29.4,1.2-58-11-85.1c-20.6-45.8-65.2-79.5-115.2-85.3V236.4z"/>
	<path id="XMLID_8_" class="st0" d="M429,253.3c-2,99.2-83.2,177.4-182.4,175.7c-99-1.7-177.3-83.8-175.6-182.6
		c1.8-98.5,84-177.6,182.5-175.5C352.2,73,431,154.4,429,253.3z M242.5,67.7c-100.7,4-179,89.1-174.8,189.8
		c4.2,100.7,89.1,179,189.8,174.8c100.9-4.1,178.8-89,174.9-189.9C428.4,141.5,343.3,63.7,242.5,67.7z"/>
	<path id="XMLID_11_" class="st0" d="M87.6,254.5l0-2.9c0-43.9,15.9-84,46.6-115.4C164,105.7,205,88.3,247.7,87.6
		c89.1-1.4,163.1,70.2,164.7,159.3c1.6,89.5-69.2,163.1-158.6,165.4c-82.3,2.1-153.1-58.8-164.4-139.1
		C88.5,267.6,87.6,260.1,87.6,254.5z M244.1,84.1c-91.5,3.3-163.5,80-160,171.7c3.5,91.4,80,163.4,171.7,160
		c91.7-3.4,163.3-80,160.1-171.8C412.6,152.4,335.9,80.8,244.1,84.1z"/>
	<path id="XMLID_14_" class="st0" d="M400.7,405.6c-0.4-2,0.2-5.3,1.1-7.1c1-1.9,3-3,5.1-3.4c4.9-0.8,9.3,1.4,9.9,6.6
		c0.6,5.1-0.8,9.2-6.2,10.4C405.6,413.3,401.5,410.5,400.7,405.6z M407.6,391.1c-1.8,0.3-2.3-0.1-4.9,1.3c-1.5,0.8-2.5,1.6-3.6,2.8
		c-7.5,8.5-0.8,22.1,11,20.9c10.7-1.1,15.4-14.3,6.9-22.1C414.6,391.8,410.9,390.6,407.6,391.1z"/>
	<path id="XMLID_17_" class="st0" d="M409.4,402.1c-0.6,0.3-1.6,0.2-2.4,0.1v-2.9c0.9-0.1,1.9-0.2,2.6,0.2c0.7,0.6,0.8,0.6,0.9,1.5
		C410.3,401.7,410.1,401.8,409.4,402.1z M403.9,409.8l3.2-0.1c0.3-1.6,0.1-3.2,0.1-4.9c1,0,0.8-0.2,1.3,0.8l2.2,4.2h3.7
		c-0.1-0.7-2.2-4.6-2.7-5.2l0.1-0.1l0.1-0.1c0.1-0.1,0.2-0.1,0.3-0.2c2.7-1.4,2.5-5.8-0.2-7c-2.1-1-5.7-0.7-8.1-0.7V409.8z"/>
	<path id="XMLID_18_" class="st0" d="M409.4,402.1h-2.2v-2.6h2.4c-0.7-0.4-1.8-0.3-2.6-0.2v2.9C407.8,402.3,408.8,402.4,409.4,402.1
		z"/>
</g>
</svg>
